# AST/ASF file generated using VICON BodyLanguage
# -----------------------------------------------
:version 1.10
:name VICON
:units
  mass 1.0
  length 0.45
  angle deg
:documentation
   .ast/.asf automatically generated from VICON data using
   VICON BodyBuilder and BodyLanguage model FoxedUp or BRILLIANT.MOD
:root
   order TX TY TZ RX RY RZ
   axis XYZ
   position 0 0 0  
   orientation 0 0 0 
:bonedata
  begin
     id 1 
     name lhipjoint
     direction 0.64773 -0.699417 0.302095 
     length 2.48597 
     axis 0 0 0  XYZ
  end
  begin
     id 2 
     name lfemur
     direction 0.34202 -0.939693 0  
     length 6.71947  
     axis 0 0 20  XYZ
    dof rx ry rz
    limits (-160.0 20.0)
           (-70.0 70.0)
           (-60.0 70.0)
  end
  begin
     id 3 
     name ltibia
     direction 0.34202 -0.939693 0   
     length 8.08777   
     axis 0 0 20   XYZ
    dof rx
    limits (-10.0 170.0)
  end
  begin
     id 4 
     name lfoot
     direction 0.0808503 -0.222134 0.971658   
     length 2.08264   
     axis -90 7.62852e-016 20   XYZ
    dof rx rz
    limits (-45.0 90.0)
           (-70.0 20.0)
  end
  begin
     id 5 
     name ltoes
     direction 1.53502e-011 -4.22007e-011 1   
     length 1.04662   
     axis -90 7.62852e-016 20   XYZ
    dof rx
    limits (-90.0 20.0)
  end
  begin
     id 6 
     name rhipjoint
     direction -0.610924 -0.726792 0.313919   
     length 2.39233  
     axis 0 0 0  XYZ 
  end
  begin
     id 7 
     name rfemur
     direction -0.34202 -0.939693 0   
     length 6.96955   
     axis 0 0 -20   XYZ
    dof rx ry rz
    limits (-160.0 20.0)
           (-70.0 70.0)
           (-70.0 60.0)
  end
  begin
     id 8 
     name rtibia
     direction -0.34202 -0.939693 0   
     length 8.19584   
     axis 0 0 -20   XYZ
    dof rx
    limits (-10.0 170.0)
 end
 begin
     id 9 
     name rfoot
     direction -0.077777 -0.213691 0.9738   
     length 2.07539  
     axis -90 -7.62852e-016 -20   XYZ
    dof rx rz
    limits (-45.0 90.0)
           (-20.0 70.0)
  end
  begin
     id 10 
     name rtoes
     direction -1.53558e-011 -4.22006e-011 1   
     length 1.04381   
     axis -90 -7.62852e-016 -20   XYZ
    dof rx
    limits (-90.0 20.0)
  end
  begin
     id 11 
     name lowerback
     direction -0.00971646 0.996074 0.0879841   
     length 1.67643   
     axis 0 0 0   XYZ
    dof rx ry rz
    limits (-20.0 45.0)
           (-30.0 30.0)
           (-30.0 30.0)
  end
  begin
     id 12 
     name upperback
     direction 0.0127391 0.991676 0.128127   
     length 1.63741   
     axis 0 0 0   XYZ
    dof rx ry rz
    limits (-20.0 45.0)
           (-30.0 30.0)
           (-30.0 30.0)
  end
  begin
     id 13 
     name thorax
     direction 0.0167583 0.996049 0.0872067   
     length 1.65931   
     axis 0 0 0   XYZ
    dof rx ry rz
    limits (-20.0 45.0)
           (-30.0 30.0)
           (-30.0 30.0)
  end
  begin
     id 14 
     name lowerneck
     direction -0.0317829 0.998312 0.0486079   
     length 1.79021   
     axis 0 0 0   XYZ
    dof rx ry rz
    limits (-20.0 45.0)
           (-30.0 30.0)
           (-30.0 30.0)
  end
  begin
     id 15 
     name upperneck
     direction 0.0896851 0.972452 -0.215159   
     length 1.78797   
     axis 0 0 0   XYZ
    dof rx ry rz
    limits (-20.0 45.0)
           (-30.0 30.0)
           (-30.0 30.0)
  end
  begin
     id 16
     name head
     direction 0.0310949 0.996503 -0.0775582  
     length 1.81549  
     axis 0 0 0   XYZ
    dof rx ry rz
    limits (-20.0 45.0)
           (-30.0 30.0)
           (-30.0 30.0)
  end
  begin
     id 17 
     name lclavicle
     direction 0.853638 0.502051 -0.138733  
     length 3.31627  
     axis 0 0 0   XYZ
    dof ry rz
    limits (-20.0 10.0)
           (0.0 20.0)
  end
  begin
     id 18 
     name lhumerus
     direction 1 -4.48962e-011 -1.41788e-018   
     length 5.54893   
     axis 180 -30 -90   XYZ
    dof rx ry rz
    limits (-60.0 90.0)
           (-90.0 90.0)
           (-90.0 90.0)
  end
  begin
     id 19
     name lradius
     direction 1 -4.48962e-011 -4.95754e-027   
     length 3.02898   
     axis 180 -30 -90   XYZ
    dof rx
    limits (-10.0 170.0)
  end
  begin
     id 20
     name lwrist
     direction 1 -4.48952e-011 -1.03764e-026   
     length 1.51449   
     axis 9.09556e-015 90 90   XYZ
    dof ry
    limits (-180.0 0.0)
 end
  begin
     id 21 
     name lhand
     direction 1 -4.4902e-011 -2.07528e-026   
     length 0.640951   
     axis 1.3242e-014 90 90   XYZ
    dof rx rz
    limits (-90.0 90.0)
           (-45.0 45.0)
  end
  begin
     id 22 
     name lfingers
     direction 1 -4.49014e-011 -4.15056e-026   
     length 0.516751   
     axis 2.64841e-014 90 90   XYZ
    dof rx
    limits (0.0 90.0)
  end
  begin
     id 23
     name lthumb
     direction 0.707107 -6.35008e-011 0.707107   
     length 0.741954   
     axis -90 45 2.85299e-015   XYZ
    dof rx rz
    limits (-45.0 45.0)
           (-45.0 45.0)
  end
  begin
     id 24 
     name rclavicle
     direction -0.888531 0.455324 -0.0565039   
     length 3.20126  
     axis 0 0 0   XYZ 
    dof ry rz
    limits (-10.0 20.0)
           (-20.0 0.0)
  end
  begin
     id 25 
     name rhumerus
     direction -1 -4.48946e-011 -8.98298e-028  
     length 5.3519   
     axis 180 30 90   XYZ
    dof rx ry rz
    limits (-90.0 60.0)
           (-90.0 90.0)
           (-90.0 90.0)
  end
  begin
     id 26 
     name rradius
     direction -1 -4.4899e-011 -3.18779e-027   
     length 3.02531   
     axis 180 30 90   XYZ
    dof rx
    limits (-10.0 170.0)
  end
  begin
     id 27 
     name rwrist
     direction -1 -4.4897e-011 -1.03764e-026   
     length 1.51266   
     axis 9.09556e-015 -90 -90   XYZ
    dof ry
    limits (-180.0 0.0)
  end
  begin
     id 28
     name rhand
     direction -1 -4.48941e-011 -2.07528e-026   
     length 0.78389   
     axis 1.3242e-014 -90 -90   XYZ
    dof rx rz
    limits (-90.0 90.0)
           (-45.0 45.0)
  end
  begin
     id 29
     name rfingers
     direction -1 -4.49012e-011 -4.15056e-026   
     length 0.631992   
     axis 2.64841e-014 -90 -90   XYZ
    dof rx
    limits (0.0 90.0)
  end
  begin
     id 30
     name rthumb
     direction -0.707107 -6.3496e-011 0.707107   
     length 0.907418   
     axis -90 -45 -2.85299e-015   XYZ
    dof rx rz
    limits (-45.0 45.0)
           (-45.0 45.0)
  end
:hierarchy
  begin
    root lhipjoint rhipjoint lowerback
    lhipjoint lfemur
    lfemur ltibia
    ltibia lfoot
    lfoot ltoes
    rhipjoint rfemur
    rfemur rtibia
    rtibia rfoot
    rfoot rtoes
    lowerback upperback
    upperback thorax
    thorax lowerneck lclavicle rclavicle
    lowerneck upperneck
    upperneck head
    lclavicle lhumerus
    lhumerus lradius
    lradius lwrist
    lwrist lhand lthumb
    lhand lfingers
    rclavicle rhumerus
    rhumerus rradius
    rradius rwrist
    rwrist rhand rthumb
    rhand rfingers
  end

#!OML:ASF E:\Style3\Style3.ASF
:FULLY-SPECIFIED
:DEGREES
1336
root 0.301952 17.8681 0.656694 -165.896 88.5698 179.396
lowerback -10.1863 0.134355 0.0230455
upperback -9.85646 0.728753 0.499655
thorax -4.60943 0.613585 0.532349
lowerneck -14.7124 -3.84522 -5.79649
upperneck 23.7737 -5.32808 6.65931
head 10.3689 -2.06369 2.65891
rclavicle 9.19379e-016 5.76476e-015
rhumerus 23.1919 34.9183 -84.5052
rradius 28.2587
rwrist -30.54
rhand -16.0781 21.486
rfingers 7.12502
rthumb 10.1248 -8.25041
lclavicle 9.19379e-016 5.76476e-015
lhumerus 29.8251 -13.1787 101.425
lradius 35.5663
lwrist 73.7801
lhand -4.78997 28.8076
lfingers 7.12502
lthumb 20.9952 57.6912
rfemur -13.7659 11.4963 17.9674
rtibia 14.3601
rfoot -14.4088 -23.0311
rtoes -12.2869
lfemur -6.5339 -21.0237 -13.9174
ltibia 1.59028e-015
lfoot -7.78225 25.4906
ltoes -15.7495
1337
root 0.302445 17.8686 0.656443 -162.911 88.6083 182.352
lowerback -10.2173 0.180351 0.145166
upperback -9.88483 0.784765 0.472197
thorax -4.62204 0.634876 0.438735
lowerneck -14.7239 -3.84445 -5.71986
upperneck 23.9981 -5.32877 6.57856
head 10.4482 -2.06027 2.62082
rclavicle 1.39149e-015 -4.96962e-015
rhumerus 24.1033 32.0469 -84.9144
rradius 26.6546
rwrist -29.069
rhand -16.2575 22.472
rfingers 7.12502
rthumb 9.95173 -7.27272
lclavicle 1.39149e-015 -4.96962e-015
lhumerus 31.1502 -11.5091 101.573
lradius 34.198
lwrist 72.9094
lhand -5.73839 28.9775
lfingers 7.12502
lthumb 20.0838 57.9595
rfemur -13.7688 11.6181 18.017
rtibia 14.2938
rfoot -14.377 -23.0983
rtoes -12.082
lfemur -6.54779 -20.9634 -13.8463
ltibia -7.95139e-015
lfoot -7.9501 25.5017
ltoes -15.3281
1338
root 0.305505 17.8676 0.65716 -162.882 88.67 182.378
lowerback -10.2814 0.181237 0.135973
upperback -9.86459 0.784675 0.460172
thorax -4.56502 0.634473 0.432433
lowerneck -14.7267 -3.8118 -5.64887
upperneck 24.1311 -5.28491 6.51098
head 10.4899 -2.03805 2.59296
rclavicle -9.44227e-016 7.35503e-015
rhumerus 25.2429 29.4474 -85.1184
rradius 25.1655
rwrist -28.3498
rhand -16.0655 23.6607
rfingers 7.12502
rthumb 10.1369 -6.07513
lclavicle -9.44227e-016 7.35503e-015
lhumerus 32.547 -10.4715 101.126
lradius 33.1748
lwrist 71.3471
lhand -7.30269 29.0336
lfingers 7.12502
lthumb 18.5797 58.1663
rfemur -13.7669 11.5945 18.0106
rtibia 14.2943
rfoot -14.3949 -23.0207
rtoes -12.0687
lfemur -6.51244 -20.9045 -13.873
ltibia 0
lfoot -8.05165 25.5047
ltoes -14.9905
1339
root 0.307221 17.8675 0.658475 -164.654 88.6963 180.588
lowerback -10.3538 0.13001 0.102907
upperback -9.83956 0.715763 0.43448
thorax -4.49775 0.600108 0.421188
lowerneck -14.749 -3.72771 -5.57771
upperneck 24.2662 -5.1945 6.54902
head 10.5361 -1.98131 2.60964
rclavicle -5.06901e-015 -1.09332e-014
rhumerus 26.8471 28.5538 -84.0648
rradius 24.2504
rwrist -28.2965
rhand -16.9094 23.7165
rfingers 7.12502
rthumb 9.32276 -6.05731
lclavicle -5.06901e-015 -1.09332e-014
lhumerus 33.9847 -8.68602 101.106
lradius 31.7744
lwrist 69.1618
lhand -7.30828 28.9023
lfingers 7.12502
lthumb 18.5743 58.0355
rfemur -13.7729 11.555 17.9682
rtibia 14.2855
rfoot -14.287 -23.0121
rtoes -12.2451
lfemur -6.51631 -20.889 -13.9173
ltibia -1.59028e-014
lfoot -7.99482 25.4969
ltoes -15.1388
1340
root 0.308254 17.8676 0.660028 -165.83 88.7115 179.399
lowerback -10.3791 0.100017 0.0823945
upperback -9.84466 0.676724 0.404867
thorax -4.48885 0.580802 0.399649
lowerneck -14.7567 -3.67014 -5.47454
upperneck 24.4304 -5.13932 6.54308
head 10.5906 -1.94217 2.60088
rclavicle -1.00386e-014 -8.74653e-015
rhumerus 28.235 27.3115 -83.2594
rradius 23.4157
rwrist -27.8257
rhand -17.5747 23.4503
rfingers 7.12502
rthumb 8.68075 -6.35121
lclavicle -1.00386e-014 -8.74653e-015
lhumerus 35.4217 -6.50747 101.532
lradius 30.2874
lwrist 67.3186
lhand -7.29537 28.8321
lfingers 7.12502
lthumb 18.5867 57.9642
rfemur -13.7897 11.5368 17.9386
rtibia 14.2952
rfoot -14.384 -22.9321
rtoes -12.0083
lfemur -6.52376 -20.8794 -13.9409
ltibia -2.8625e-014
lfoot -8.03596 25.4964
ltoes -15.4076
1341
root 0.310594 17.8674 0.662445 -164.766 88.7363 180.443
lowerback -10.3882 0.0720663 0.0465522
upperback -9.86661 0.644361 0.428348
thorax -4.50788 0.568324 0.442021
lowerneck -14.809 -3.62773 -5.38471
upperneck 24.699 -5.07808 6.44188
head 10.6897 -1.90998 2.56223
rclavicle -5.06901e-015 -3.57812e-015
rhumerus 29.3082 25.1227 -83.228
rradius 22.428
rwrist -26.6906
rhand -17.4155 23.6918
rfingers 7.12502
rthumb 8.83444 -6.10324
lclavicle -5.06901e-015 -3.57812e-015
lhumerus 36.8621 -3.76231 102.766
lradius 28.5979
lwrist 63.9025
lhand -6.64372 28.6646
lfingers 7.12502
lthumb 19.2134 57.7355
rfemur -13.804 11.5756 17.9639
rtibia 14.2902
rfoot -14.4167 -22.9378
rtoes -11.9728
lfemur -6.52348 -20.8449 -13.9066
ltibia -1.59028e-014
lfoot -8.01998 25.473
ltoes -15.3548
1342
root 0.314555 17.8678 0.663967 -164.754 88.7437 180.443
lowerback -10.4118 0.0250092 0.00805948
upperback -9.8905 0.586801 0.441958
thorax -4.5207 0.543132 0.474166
lowerneck -14.7396 -3.56071 -5.32867
upperneck 24.8803 -4.99226 6.41265
head 10.7345 -1.8644 2.55858
rclavicle -6.43565e-015 -7.55382e-015
rhumerus 30.3634 23.1176 -83.1403
rradius 21.6648
rwrist -25.826
rhand -17.1199 23.7605
rfingers 7.12502
rthumb 9.11965 -6.02234
lclavicle -6.43565e-015 -7.55382e-015
lhumerus 38.4372 -1.0388 104.048
lradius 26.7408
lwrist 59.6334
lhand -5.50877 28.4275
lfingers 7.12502
lthumb 20.3045 57.3862
rfemur -13.7938 11.5752 17.9705
rtibia 14.2747
rfoot -14.373 -22.9263
rtoes -12.2388
lfemur -6.52713 -20.8356 -13.9003
ltibia -1.74931e-014
lfoot -7.88177 25.4728
ltoes -15.4617
1343
root 0.321604 17.867 0.664207 -164.504 88.7952 180.67
lowerback -10.4481 -0.000703087 0.0183196
upperback -9.94452 0.556952 0.438729
thorax -4.55885 0.529635 0.462984
lowerneck -14.6929 -3.49049 -5.28353
upperneck 25.1329 -4.90414 6.40312
head 10.8111 -1.81407 2.5656
rclavicle -4.67144e-015 3.97569e-016
rhumerus 31.3848 21.9678 -82.3188
rradius 21.551
rwrist -26.1
rhand -17.0226 23.3418
rfingers 7.12502
rthumb 9.21357 -6.43691
lclavicle -4.67144e-015 3.97569e-016
lhumerus 39.9707 0.578339 103.961
lradius 25.1613
lwrist 57.2235
lhand -4.80599 28.3621
lfingers 7.12502
lthumb 20.9798 57.2474
rfemur -13.7852 11.6073 17.9641
rtibia 14.259
rfoot -14.3994 -22.8901
rtoes -12.2219
lfemur -6.5059 -20.7832 -13.9153
ltibia 7.95139e-015
lfoot -7.91345 25.4627
ltoes -15.5931
1344
root 0.329304 17.8675 0.664832 -165.038 88.8202 180.09
lowerback -10.4416 -0.0420552 0.0391061
upperback -10.0411 0.508681 0.424312
thorax -4.66606 0.507208 0.432267
lowerneck -14.7461 -3.42328 -5.19184
upperneck 25.5429 -4.81507 6.32987
head 10.9635 -1.76132 2.54402
rclavicle 1.21756e-015 -3.97569e-016
rhumerus 32.4808 21.5157 -80.8632
rradius 21.6295
rwrist -27.3088
rhand -17.0202 23.0942
rfingers 7.12502
rthumb 9.21587 -6.68445
lclavicle 1.21756e-015 -3.97569e-016
lhumerus 41.3268 2.11314 103.746
lradius 23.9235
lwrist 55.3663
lhand -4.36018 28.1602
lfingers 7.12502
lthumb 21.4081 56.9974
rfemur -13.8034 11.6289 17.9367
rtibia 14.2463
rfoot -14.4657 -22.8718
rtoes -11.9142
lfemur -6.51721 -20.7583 -13.9292
ltibia 1.27222e-014
lfoot -8.02303 25.4568
ltoes -15.3526
1345
root 0.336231 17.867 0.66539 -164.153 88.8347 180.94
lowerback -10.4505 -0.0912885 0.0765842
upperback -10.1227 0.448309 0.429323
thorax -4.74898 0.477917 0.412089
lowerneck -14.7768 -3.36341 -5.10712
upperneck 25.9469 -4.73202 6.249
head 11.111 -1.71329 2.52026
rclavicle -3.80176e-015 1.6201e-014
rhumerus 33.4737 19.7797 -80.6695
rradius 20.9267
rwrist -26.7948
rhand -16.7072 23.3794
rfingers 7.12502
rthumb 9.51782 -6.3856
lclavicle -3.80176e-015 1.6201e-014
lhumerus 42.7253 4.0039 104.109
lradius 22.7244
lwrist 53.0012
lhand -3.96536 27.816
lfingers 7.12502
lthumb 21.7872 56.6097
rfemur -13.8186 11.6074 17.9536
rtibia 14.2367
rfoot -14.4088 -22.8635
rtoes -12.0359
lfemur -6.52642 -20.7361 -13.9098
ltibia 9.54166e-015
lfoot -8.07585 25.4751
ltoes -15.2402
